name C:/MyDriveSym/Projects/mobilecap/Data\Session20210816_0002\mocap\ForceDataProcessed\walkingTS2_forces.mot
datacolumns 19
datarows 24
range 1.35700000 1.36850000
endheader 
time	R_ground_force_vx	R_ground_force_vy	R_ground_force_vz	R_ground_force_px	R_ground_force_py	R_ground_force_pz	R_ground_torque_x	R_ground_torque_y	R_ground_torque_z	L_ground_force_vx	L_ground_force_vy	L_ground_force_vz	L_ground_force_px	L_ground_force_py	L_ground_force_pz	L_ground_torque_x	L_ground_torque_y	L_ground_torque_z	
          1.35700000	          0.00000000	          0.00000000	          0.00000000	          1.27127500	          0.00000000	         -0.21552700	          0.00000000	          0.00000000	          0.00000000	         48.04812800	        629.70628200	         -1.96834300	          0.93552000	          0.00600000	         -0.24860100	          0.00000000	          4.17805300	          0.00000000	
          1.35750000	          0.00000000	          0.00000000	          0.00000000	          1.27219100	          0.00000000	         -0.21563000	          0.00000000	          0.00000000	          0.00000000	         48.26392900	        629.62928800	         -1.95553500	          0.93558200	          0.00600000	         -0.24859600	          0.00000000	          4.16702400	          0.00000000	
          1.35800000	          0.00000000	          0.00000000	          0.00000000	          1.27310700	          0.00000000	         -0.21573200	          0.00000000	          0.00000000	          0.00000000	         48.47996600	        629.55153400	         -1.94251900	          0.93564400	          0.00600000	         -0.24859100	          0.00000000	          4.15592600	          0.00000000	
          1.35850000	          0.00000000	          0.00000000	          0.00000000	          1.27402300	          0.00000000	         -0.21583500	          0.00000000	          0.00000000	          0.00000000	         48.69623700	        629.47301100	         -1.92929800	          0.93570600	          0.00600000	         -0.24858600	          0.00000000	          4.14475800	          0.00000000	
          1.35900000	          0.00000000	          0.00000000	          0.00000000	          1.27493900	          0.00000000	         -0.21593700	          0.00000000	          0.00000000	          0.00000000	         48.91274000	        629.39371100	         -1.91587300	          0.93576800	          0.00600000	         -0.24858100	          0.00000000	          4.13352100	          0.00000000	
          1.35950000	          0.00000000	          0.00000000	          0.00000000	          1.27585600	          0.00000000	         -0.21604000	          0.00000000	          0.00000000	          0.00000000	         49.12947200	        629.31362700	         -1.90224400	          0.93583000	          0.00600000	         -0.24857500	          0.00000000	          4.12221500	          0.00000000	
          1.36000000	          0.00000000	          0.00000000	          0.00000000	          1.27677200	          0.00000000	         -0.21614300	          0.00000000	          0.00000000	          0.00000000	         49.34643200	        629.23275000	         -1.88841200	          0.93589200	          0.00600000	         -0.24857000	          0.00000000	          4.11084000	          0.00000000	
          1.36050000	          0.00000000	          0.00000000	          0.00000000	          1.27768800	          0.00000000	         -0.21624500	          0.00000000	          0.00000000	          0.00000000	         49.56361500	        629.15107200	         -1.87438000	          0.93595400	          0.00600000	         -0.24856500	          0.00000000	          4.09939700	          0.00000000	
          1.36100000	          0.00000000	          0.00000000	          0.00000000	          1.27860400	          0.00000000	         -0.21634800	          0.00000000	          0.00000000	          0.00000000	         49.78102100	        629.06858600	         -1.86014800	          0.93601600	          0.00600000	         -0.24856000	          0.00000000	          4.08788500	          0.00000000	
          1.36150000	          0.00000000	          0.00000000	          0.00000000	          1.27952000	          0.00000000	         -0.21645100	          0.00000000	          0.00000000	          0.00000000	         49.99864600	        628.98528300	         -1.84571900	          0.93607800	          0.00600000	         -0.24855500	          0.00000000	          4.07630500	          0.00000000	
          1.36200000	          0.00000000	          0.00000000	          0.00000000	          1.28043600	          0.00000000	         -0.21655300	          0.00000000	          0.00000000	          0.00000000	         50.21648700	        628.90115700	         -1.83109200	          0.93613900	          0.00600000	         -0.24854900	          0.00000000	          4.06465600	          0.00000000	
          1.36250000	          0.00000000	          0.00000000	          0.00000000	          1.28135200	          0.00000000	         -0.21665600	          0.00000000	          0.00000000	          0.00000000	         50.43454200	        628.81619800	         -1.81627000	          0.93620100	          0.00600000	         -0.24854400	          0.00000000	          4.05294000	          0.00000000	
          1.36300000	          0.00000000	          0.00000000	          0.00000000	          1.28226800	          0.00000000	         -0.21675800	          0.00000000	          0.00000000	          0.00000000	         50.65280800	        628.73040000	         -1.80125500	          0.93626300	          0.00600000	         -0.24853900	          0.00000000	          4.04115700	          0.00000000	
          1.36350000	          0.00000000	          0.00000000	          0.00000000	          1.28318400	          0.00000000	         -0.21686100	          0.00000000	          0.00000000	          0.00000000	         50.87128200	        628.64375300	         -1.78604800	          0.93632400	          0.00600000	         -0.24853400	          0.00000000	          4.02930600	          0.00000000	
          1.36400000	          0.00000000	          0.00000000	          0.00000000	          1.28410000	          0.00000000	         -0.21696400	          0.00000000	          0.00000000	          0.00000000	         51.08996200	        628.55625100	         -1.77065000	          0.93638600	          0.00600000	         -0.24852900	          0.00000000	          4.01738800	          0.00000000	
          1.36450000	          0.00000000	          0.00000000	          0.00000000	          1.28501700	          0.00000000	         -0.21706600	          0.00000000	          0.00000000	          0.00000000	         51.30884300	        628.46788500	         -1.75506500	          0.93644700	          0.00600000	         -0.24852400	          0.00000000	          4.00540300	          0.00000000	
          1.36500000	          0.00000000	          0.00000000	          0.00000000	          1.28593300	          0.00000000	         -0.21716900	          0.00000000	          0.00000000	          0.00000000	         51.52792400	        628.37864700	         -1.73929200	          0.93650900	          0.00600000	         -0.24851900	          0.00000000	          3.99335100	          0.00000000	
          1.36550000	          0.00000000	          0.00000000	          0.00000000	          1.28684900	          0.00000000	         -0.21727200	          0.00000000	          0.00000000	          0.00000000	         51.74720000	        628.28852900	         -1.72333600	          0.93657000	          0.00600000	         -0.24851400	          0.00000000	          3.98123300	          0.00000000	
          1.36600000	          0.00000000	          0.00000000	          0.00000000	          1.28776500	          0.00000000	         -0.21737400	          0.00000000	          0.00000000	          0.00000000	         51.96667000	        628.19752400	         -1.70719600	          0.93663100	          0.00600000	         -0.24850900	          0.00000000	          3.96905000	          0.00000000	
          1.36650000	          0.00000000	          0.00000000	          0.00000000	          1.28868100	          0.00000000	         -0.21747700	          0.00000000	          0.00000000	          0.00000000	         52.18632900	        628.10562300	         -1.69087600	          0.93669300	          0.00600000	         -0.24850400	          0.00000000	          3.95680000	          0.00000000	
          1.36700000	          0.00000000	          0.00000000	          0.00000000	          1.28959700	          0.00000000	         -0.21758000	          0.00000000	          0.00000000	          0.00000000	         52.40617400	        628.01281700	         -1.67437700	          0.93675400	          0.00600000	         -0.24849900	          0.00000000	          3.94448500	          0.00000000	
          1.36750000	          0.00000000	          0.00000000	          0.00000000	          1.29051300	          0.00000000	         -0.21768200	          0.00000000	          0.00000000	          0.00000000	         52.62620300	        627.91910000	         -1.65770100	          0.93681500	          0.00600000	         -0.24849400	          0.00000000	          3.93210500	          0.00000000	
          1.36800000	          0.00000000	          0.00000000	          0.00000000	          1.29142900	          0.00000000	         -0.21778500	          0.00000000	          0.00000000	          0.00000000	         52.84641100	        627.82446300	         -1.64085100	          0.93687600	          0.00600000	         -0.24848900	          0.00000000	          3.91966000	          0.00000000	
          1.36850000	          0.00000000	          0.00000000	          0.00000000	          1.29234500	          0.00000000	         -0.21788700	          0.00000000	          0.00000000	          0.00000000	         53.06679500	        627.72889700	         -1.62382900	          0.93693700	          0.00600000	         -0.24848400	          0.00000000	          3.90715100	          0.00000000	
